<svg xmlns="http://www.w3.org/2000/svg" viewBox="0 0 192 192" width="192" height="192">
  <defs>
    <radialGradient id="bgGrad192" cx="50%" cy="50%" r="50%">
      <stop offset="0%" stop-color="#261F38"/>
      <stop offset="100%" stop-color="#0E0C14"/>
    </radialGradient>
    <linearGradient id="goldGrad192" x1="0%" y1="0%" x2="100%" y2="100%">
      <stop offset="0%" stop-color="#FFF2C6"/>
      <stop offset="50%" stop-color="#D4AF37"/>
      <stop offset="100%" stop-color="#8E600F"/>
    </linearGradient>
    <linearGradient id="leafFill192" x1="0%" y1="0%" x2="100%" y2="100%">
      <stop offset="0%" stop-color="#52B788"/>
      <stop offset="100%" stop-color="#1B4332"/>
    </linearGradient>
  </defs>

  <rect width="192" height="192" rx="42" fill="url(#bgGrad192)"/>
  <circle cx="96" cy="96" r="86" stroke="url(#goldGrad192)" stroke-width="1.5" stroke-dasharray="4 4" opacity="0.4"/>

  <!-- Bay Leaf -->
  <path d="M96 26 C96 26 148 60 148 106 C148 140 125 163 96 168 C67 163 44 140 44 106 C44 60 96 26 96 26 Z"
        fill="url(#leafFill192)" stroke="url(#goldGrad192)" stroke-width="2.5"/>

  <!-- Veins -->
  <path d="M96 35 L96 162" stroke="#FFF2C6" stroke-width="2" stroke-linecap="round"/>
  <path d="M96 60 L125 76 M96 85 L133 102 M96 110 L135 127" stroke="#FFF2C6" stroke-width="1.5" stroke-linecap="round" opacity="0.85"/>
  <path d="M96 60 L67 76 M96 85 L59 102 M96 110 L57 127" stroke="#FFF2C6" stroke-width="1.5" stroke-linecap="round" opacity="0.85"/>

  <circle cx="96" cy="98" r="11" fill="#FFFBE6"/>
  <text x="96" y="102" text-anchor="middle" font-family="serif" font-size="11" fill="#6B4B00" font-weight="bold">ॐ</text>
</svg>
